<?xml version="1.0" encoding="utf-8"?>
<!-- Generator: Adobe Illustrator 16.0.0, SVG Export Plug-In . SVG Version: 6.00 Build 0)  -->
<!DOCTYPE svg PUBLIC "-//W3C//DTD SVG 1.1//EN" "http://www.w3.org/Graphics/SVG/1.1/DTD/svg11.dtd">
<svg version="1.1" id="Layer_1" xmlns="http://www.w3.org/2000/svg" xmlns:xlink="http://www.w3.org/1999/xlink" x="0px" y="0px"
	 width="250.4px" height="72.7px" viewBox="0 0 250.4 72.7" style="enable-background:new 0 0 250.4 72.7;" xml:space="preserve">
<style type="text/css">
<![CDATA[
	.st0{fill:#B30838;}
	.st1{fill:#FFFFFF;}
]]>
</style>
<polygon points="196.1,44.6 197.9,44.6 197.9,40.5 202,34.3 199.9,34.3 197,38.9 194.1,34.3 192,34.3 196.1,40.6 196.1,44.6 "/>
<g>
	<path d="M0.5,65.3L0.5,65.3c0-2.9,2.2-5.3,5.3-5.3c1.9,0,3.1,0.6,4,1.6l-1.4,1.6C7.6,62.5,6.8,62,5.8,62c-1.7,0-2.9,1.4-2.9,3.2v0
		c0,1.7,1.2,3.2,2.9,3.2c1.2,0,1.9-0.5,2.7-1.2l1.4,1.4c-1,1.1-2.2,1.8-4.2,1.8C2.7,70.5,0.5,68.2,0.5,65.3z"/>
	<path d="M10.8,66.5L10.8,66.5c0-2.3,1.8-4.1,4.2-4.1c2.4,0,4.2,1.8,4.2,4v0c0,2.2-1.8,4-4.2,4C12.6,70.5,10.8,68.7,10.8,66.5z
		 M17,66.5L17,66.5c0-1.2-0.8-2.2-2-2.2c-1.3,0-2,1-2,2.1v0c0,1.1,0.8,2.1,2,2.1C16.3,68.6,17,67.6,17,66.5z"/>
	<path d="M20.6,59.7h2.2v10.6h-2.2V59.7z"/>
	<path d="M24.7,59.7h2.2v10.6h-2.2V59.7z"/>
	<path d="M28.3,66.5L28.3,66.5c0-2.2,1.6-4.1,3.8-4.1c2.6,0,3.8,2,3.8,4.2c0,0.2,0,0.4,0,0.6h-5.4c0.2,1,0.9,1.5,1.9,1.5
		c0.7,0,1.3-0.2,1.9-0.8l1.3,1.1c-0.7,0.9-1.8,1.4-3.2,1.4C30,70.5,28.3,68.8,28.3,66.5z M33.8,65.8c-0.1-1-0.7-1.7-1.6-1.7
		c-0.9,0-1.5,0.7-1.7,1.7H33.8z"/>
	<path d="M37.3,71.8l0.8-1.7c0.8,0.5,1.6,0.7,2.6,0.7c1.5,0,2.2-0.7,2.2-2.1v-0.4c-0.7,0.8-1.4,1.3-2.5,1.3c-1.8,0-3.5-1.3-3.5-3.6
		v0c0-2.3,1.7-3.6,3.5-3.6c1.2,0,1.9,0.5,2.5,1.2v-1h2.2v6c0,1.4-0.3,2.4-1,3.1c-0.7,0.7-1.8,1-3.3,1C39.5,72.7,38.3,72.4,37.3,71.8
		z M42.9,66L42.9,66c0-1.1-0.8-1.8-1.9-1.8S39.1,65,39.1,66v0c0,1.1,0.8,1.8,1.9,1.8S42.9,67.1,42.9,66z"/>
	<path d="M46.4,66.5L46.4,66.5c0-2.2,1.6-4.1,3.8-4.1c2.6,0,3.8,2,3.8,4.2c0,0.2,0,0.4,0,0.6h-5.4c0.2,1,0.9,1.5,1.9,1.5
		c0.7,0,1.3-0.2,1.9-0.8l1.3,1.1c-0.7,0.9-1.8,1.4-3.2,1.4C48.1,70.5,46.4,68.8,46.4,66.5z M51.9,65.8c-0.1-1-0.7-1.7-1.6-1.7
		c-0.9,0-1.5,0.7-1.7,1.7H51.9z"/>
	<path d="M59,66.5L59,66.5c0-2.3,1.8-4.1,4.2-4.1c2.4,0,4.2,1.8,4.2,4v0c0,2.2-1.8,4-4.2,4C60.8,70.5,59,68.7,59,66.5z M65.3,66.5
		L65.3,66.5c0-1.2-0.8-2.2-2-2.2c-1.3,0-2,1-2,2.1v0c0,1.1,0.8,2.1,2,2.1C64.5,68.6,65.3,67.6,65.3,66.5z"/>
	<path d="M69.1,64.4h-0.9v-1.8h0.9v-0.5c0-0.9,0.2-1.5,0.6-1.9s1-0.6,1.8-0.6c0.7,0,1.2,0.1,1.6,0.2v1.8c-0.3-0.1-0.6-0.2-1-0.2
		c-0.5,0-0.8,0.3-0.8,0.8v0.3h1.8v1.8h-1.8v5.9h-2.2V64.4z"/>
	<path d="M77.6,68.8l1.3-1.6c0.9,0.8,1.9,1.2,3,1.2c0.9,0,1.5-0.4,1.5-1v0c0-0.6-0.3-0.9-2-1.3c-2-0.5-3.4-1.1-3.4-3.1v0
		c0-1.8,1.5-3.1,3.6-3.1c1.5,0,2.7,0.5,3.8,1.3L84.2,63c-0.9-0.6-1.8-1-2.6-1s-1.3,0.4-1.3,0.9v0c0,0.7,0.4,0.9,2.2,1.3
		c2.1,0.5,3.2,1.3,3.2,3v0c0,2-1.5,3.1-3.7,3.1C80.4,70.5,78.8,69.9,77.6,68.8z"/>
	<path d="M86.7,66.5L86.7,66.5c0-2.2,1.7-4.1,4.1-4.1c1.5,0,2.4,0.5,3.1,1.3l-1.3,1.5c-0.5-0.5-1-0.9-1.8-0.9c-1.1,0-1.9,1-1.9,2.1
		v0c0,1.2,0.8,2.1,2,2.1c0.7,0,1.2-0.3,1.8-0.8l1.3,1.3c-0.8,0.8-1.6,1.4-3.2,1.4C88.4,70.5,86.7,68.7,86.7,66.5z"/>
	<path d="M95.1,59.7h2.3v2h-2.3V59.7z M95.1,62.5h2.2v7.8h-2.2V62.5z"/>
	<path d="M98.8,66.5L98.8,66.5c0-2.2,1.6-4.1,3.8-4.1c2.6,0,3.8,2,3.8,4.2c0,0.2,0,0.4,0,0.6h-5.4c0.2,1,0.9,1.5,1.9,1.5
		c0.7,0,1.3-0.2,1.9-0.8L106,69c-0.7,0.9-1.8,1.4-3.2,1.4C100.5,70.5,98.8,68.8,98.8,66.5z M104.2,65.8c-0.1-1-0.7-1.7-1.6-1.7
		c-0.9,0-1.5,0.7-1.7,1.7H104.2z"/>
	<path d="M107.7,62.5h2.2v1.1c0.5-0.7,1.2-1.2,2.3-1.2c1.7,0,2.6,1.1,2.6,2.9v5h-2.2V66c0-1-0.5-1.6-1.3-1.6c-0.8,0-1.4,0.5-1.4,1.6
		v4.3h-2.2V62.5z"/>
	<path d="M116.1,66.5L116.1,66.5c0-2.2,1.7-4.1,4.1-4.1c1.5,0,2.4,0.5,3.1,1.3l-1.3,1.5c-0.5-0.5-1-0.9-1.8-0.9
		c-1.1,0-1.9,1-1.9,2.1v0c0,1.2,0.8,2.1,2,2.1c0.7,0,1.2-0.3,1.8-0.8l1.3,1.3c-0.8,0.8-1.6,1.4-3.2,1.4
		C117.8,70.5,116.1,68.7,116.1,66.5z"/>
	<path d="M124.1,66.5L124.1,66.5c0-2.2,1.6-4.1,3.8-4.1c2.6,0,3.8,2,3.8,4.2c0,0.2,0,0.4,0,0.6h-5.4c0.2,1,0.9,1.5,1.9,1.5
		c0.7,0,1.3-0.2,1.9-0.8l1.3,1.1c-0.7,0.9-1.8,1.4-3.2,1.4C125.8,70.5,124.1,68.8,124.1,66.5z M129.6,65.8c-0.1-1-0.7-1.7-1.6-1.7
		c-0.9,0-1.5,0.7-1.7,1.7H129.6z"/>
	<path d="M136.5,68.1L136.5,68.1c0-1.7,1.3-2.5,3.1-2.5c0.8,0,1.3,0.1,1.9,0.3v-0.1c0-0.9-0.6-1.4-1.7-1.4c-0.8,0-1.4,0.2-2.1,0.4
		l-0.6-1.7c0.9-0.4,1.7-0.6,3-0.6c1.2,0,2.1,0.3,2.6,0.9c0.6,0.6,0.8,1.4,0.8,2.5v4.5h-2.1v-0.8c-0.5,0.6-1.3,1-2.3,1
		C137.7,70.4,136.5,69.6,136.5,68.1z M141.6,67.6v-0.4c-0.4-0.2-0.9-0.3-1.4-0.3c-0.9,0-1.5,0.4-1.5,1.1v0c0,0.6,0.5,0.9,1.2,0.9
		C140.9,68.9,141.6,68.4,141.6,67.6z"/>
	<path d="M145.3,62.5h2.2v1.1c0.5-0.7,1.2-1.2,2.3-1.2c1.7,0,2.6,1.1,2.6,2.9v5h-2.2V66c0-1-0.5-1.6-1.3-1.6s-1.4,0.5-1.4,1.6v4.3
		h-2.2V62.5z"/>
	<path d="M153.7,66.4L153.7,66.4c0-2.6,1.7-4,3.5-4c1.2,0,1.9,0.5,2.4,1.2v-3.8h2.2v10.6h-2.2v-1.1c-0.5,0.7-1.3,1.3-2.4,1.3
		C155.4,70.4,153.7,69,153.7,66.4z M159.7,66.4L159.7,66.4c0-1.3-0.9-2.2-1.9-2.2s-1.9,0.8-1.9,2.1v0c0,1.3,0.9,2.1,1.9,2.1
		S159.7,67.7,159.7,66.4z"/>
	<path d="M170.2,62.2h-3.1v-2.1h8.4v2.1h-3.1v8.1h-2.2V62.2z"/>
	<path d="M176.3,66.5L176.3,66.5c0-2.2,1.6-4.1,3.8-4.1c2.6,0,3.8,2,3.8,4.2c0,0.2,0,0.4,0,0.6h-5.4c0.2,1,0.9,1.5,1.9,1.5
		c0.7,0,1.3-0.2,1.9-0.8l1.3,1.1c-0.7,0.9-1.8,1.4-3.2,1.4C178,70.5,176.3,68.8,176.3,66.5z M181.8,65.8c-0.1-1-0.7-1.7-1.6-1.7
		c-0.9,0-1.5,0.7-1.7,1.7H181.8z"/>
	<path d="M184.9,66.5L184.9,66.5c0-2.2,1.7-4.1,4.1-4.1c1.5,0,2.4,0.5,3.1,1.3l-1.3,1.5c-0.5-0.5-1-0.9-1.8-0.9
		c-1.1,0-1.9,1-1.9,2.1v0c0,1.2,0.8,2.1,2,2.1c0.7,0,1.2-0.3,1.8-0.8l1.3,1.3c-0.8,0.8-1.6,1.4-3.2,1.4
		C186.6,70.5,184.9,68.7,184.9,66.5z"/>
	<path d="M193.3,59.7h2.2v3.9c0.5-0.7,1.2-1.2,2.3-1.2c1.7,0,2.6,1.1,2.6,2.9v5h-2.2V66c0-1-0.5-1.6-1.3-1.6c-0.8,0-1.4,0.5-1.4,1.6
		v4.3h-2.2V59.7z"/>
	<path d="M202,62.5h2.2v1.1c0.5-0.7,1.2-1.2,2.3-1.2c1.7,0,2.6,1.1,2.6,2.9v5h-2.2V66c0-1-0.5-1.6-1.3-1.6c-0.8,0-1.4,0.5-1.4,1.6
		v4.3H202V62.5z"/>
	<path d="M210.4,66.5L210.4,66.5c0-2.3,1.8-4.1,4.2-4.1c2.4,0,4.2,1.8,4.2,4v0c0,2.2-1.8,4-4.2,4C212.2,70.5,210.4,68.7,210.4,66.5z
		 M216.6,66.5L216.6,66.5c0-1.2-0.8-2.2-2-2.2c-1.3,0-2,1-2,2.1v0c0,1.1,0.8,2.1,2,2.1C215.9,68.6,216.6,67.6,216.6,66.5z"/>
	<path d="M220.2,59.7h2.2v10.6h-2.2V59.7z"/>
	<path d="M223.8,66.5L223.8,66.5c0-2.3,1.8-4.1,4.2-4.1c2.4,0,4.2,1.8,4.2,4v0c0,2.2-1.8,4-4.2,4C225.6,70.5,223.8,68.7,223.8,66.5z
		 M230,66.5L230,66.5c0-1.2-0.8-2.2-2-2.2c-1.3,0-2,1-2,2.1v0c0,1.1,0.8,2.1,2,2.1C229.3,68.6,230,67.6,230,66.5z"/>
	<path d="M233.6,71.8l0.8-1.7c0.8,0.4,1.6,0.7,2.6,0.7c1.5,0,2.2-0.7,2.2-2.1v-0.4c-0.7,0.8-1.4,1.3-2.5,1.3c-1.8,0-3.4-1.3-3.4-3.6
		v0c0-2.3,1.7-3.6,3.4-3.6c1.2,0,1.9,0.5,2.5,1.2v-1h2.2v6c0,1.4-0.3,2.4-1,3.1c-0.7,0.7-1.8,1-3.3,1
		C235.7,72.7,234.6,72.4,233.6,71.8z M239.2,66L239.2,66c0-1.1-0.8-1.8-1.9-1.8c-1.1,0-1.9,0.7-1.9,1.8v0c0,1.1,0.8,1.8,1.9,1.8
		C238.3,67.8,239.2,67.1,239.2,66z"/>
	<path d="M242.9,72.1l0.7-1.6c0.3,0.2,0.7,0.3,0.9,0.3c0.4,0,0.6-0.1,0.8-0.5l-3-7.8h2.3l1.8,5.3l1.7-5.3h2.3l-3,8
		c-0.6,1.6-1.2,2.2-2.6,2.2C244.1,72.7,243.5,72.5,242.9,72.1z"/>
</g>
<polygon class="st0" points="38.7,44.6 38.7,0 0,0 0,44.6 38.7,44.6 "/>
<polygon class="st1" points="32.9,3.2 5.8,3.2 3,3.2 3,5.8 3,16.5 5.8,16.5 5.8,5.8 32.9,5.8 32.9,16.3 35.6,16.3 35.6,5.8 
	35.6,3.2 32.9,3.2 "/>
<polygon class="st1" points="10.3,32.8 10.3,35.5 15,35.5 17.7,35.5 17.7,32.8 17.7,11.9 17.7,9.2 15,9.2 11.7,9.2 9,9.2 9,11.9 
	9,16.4 11.7,16.4 11.7,11.9 15,11.9 15,32.8 10.3,32.8 "/>
<polygon class="st1" points="23.8,9.1 21,9.1 21,11.9 21,32.8 21,35.5 23.8,35.5 28.5,35.5 28.5,32.8 23.8,32.8 23.8,11.9 27,11.9 
	27,16.4 29.8,16.4 29.8,11.9 29.8,9.1 27,9.1 23.8,9.1 "/>
<polygon class="st1" points="10.3,41.3 28.5,41.3 28.5,38.6 10.3,38.6 10.3,41.3 "/>
<path d="M70.7,7.9c-0.2-2.6-0.4-6.1-0.4-7.9h-1c-0.7,0.8-1.2,1.1-2.3,1.1H50.1c-1.2,0-1.7-0.1-2.4-1.1h-1c-0.1,2.2-0.3,5.1-0.5,8.1
	h1.4c0.5-2,1-3.4,1.6-4.1c0.6-0.8,1.4-1.2,4.9-1.2H56V23c0,3.5-0.4,3.8-4.1,4.1v1.4h13.2v-1.4c-3.8-0.3-4.2-0.6-4.2-4.1V2.7h2.3
	c2.7,0,3.7,0.3,4.4,1.1c0.7,0.7,1.2,2,1.7,4.1L70.7,7.9L70.7,7.9z M94.1,21.4c-0.7,1.8-1.5,3.2-2.3,4.1c-1,1.1-2.3,1.4-4.9,1.4
	c-1.8,0-3.3,0-4.1-0.5c-0.8-0.4-1-1.4-1-3.5v-7.5h3.3c3.6,0,4.1,0.2,4.6,3.2h1.4v-8.4h-1.4c-0.5,3-1,3.2-4.7,3.2h-3.3V4.2
	c0-1.3,0.1-1.4,1.6-1.4h2.5c2.6,0,3.8,0.3,4.4,1.1c0.7,0.8,1.2,2,1.6,3.6l1.4-0.2c-0.2-2.5-0.4-5.4-0.4-6.2H73.4v1.4
	c3.1,0.3,3.5,0.5,3.5,4.2V23c0,3.5-0.4,3.8-4.1,4.1v1.4H94c0.4-1.3,1.2-5.1,1.5-6.9L94.1,21.4L94.1,21.4z M132.4,28.5v-1.4
	c-3.4-0.3-3.6-0.6-3.7-4.7l-0.4-15.6c-0.1-3.8,0.1-4.1,3.6-4.4V1.1h-8L115,20.5l-8.7-19.4h-8.1v1.4c3.7,0.3,4,0.8,3.6,5.9l-0.6,8.5
	c-0.3,4.4-0.6,6.5-0.8,7.9c-0.3,1.6-1.1,2.2-3.5,2.4v1.4h10v-1.4c-2.8-0.3-3.7-0.6-3.8-2.5c-0.1-1.5-0.1-3.4,0-6.9l0.5-11.4h0.2
	l8.9,21.9h1.1l9.7-22.4h0.2l0.1,16.6c0,4.1-0.2,4.4-3.4,4.7v1.4H132.4L132.4,28.5z M135.4,1.1v1.4c3,0.3,3.4,0.5,3.4,4.1V23
	c0,3.5-0.4,3.8-3.6,4.1v1.4h12.5v-1.4c-3.7-0.3-4.1-0.5-4.1-4.1v-6.1l3,0.8c0.5,0,1.2,0,1.8-0.1c4.3-0.5,8.5-3.1,8.5-8.7
	c0-2.8-1.1-4.8-3-6.2c-1.7-1.2-4.1-1.6-7.3-1.6H135.4L135.4,1.1z M143.6,4.6c0-0.8,0.1-1.3,0.4-1.6c0.3-0.3,0.9-0.5,1.9-0.5
	c2.9,0,5.7,1.7,5.7,6.4c0,5.6-3.4,6.8-5.4,6.8c-1.1,0-2.1-0.2-2.6-0.5V4.6L143.6,4.6z M178.6,21.1c-0.7,2.1-1.5,3.4-2.3,4.3
	c-1,1.1-2.4,1.4-4.5,1.4c-1.5,0-2.7-0.1-3.5-0.4c-0.8-0.4-1-1.2-1-3.3V6.5c0-3.6,0.4-3.8,3.6-4.1V1.1h-12.2v1.4
	c3.3,0.3,3.7,0.5,3.7,4.1V23c0,3.6-0.4,3.8-4,4.1v1.4h20c0.4-1.2,1.2-5.3,1.6-7L178.6,21.1L178.6,21.1z M202.4,21.4
	c-0.7,1.8-1.5,3.2-2.3,4.1c-1,1.1-2.3,1.4-4.9,1.4c-1.8,0-3.3,0-4.1-0.5s-1-1.4-1-3.5v-7.5h3.3c3.6,0,4.1,0.2,4.6,3.2h1.4v-8.4h-1.4
	c-0.5,3-1,3.2-4.7,3.2h-3.3V4.2c0-1.3,0.1-1.4,1.6-1.4h2.5c2.6,0,3.8,0.3,4.4,1.1c0.7,0.8,1.2,2,1.6,3.6l1.4-0.2
	c-0.2-2.5-0.4-5.4-0.4-6.2h-19.5v1.4c3.1,0.3,3.5,0.5,3.5,4.2V23c0,3.5-0.4,3.8-4.1,4.1v1.4h21.1c0.4-1.3,1.2-5.1,1.5-6.9
	L202.4,21.4L202.4,21.4z"/>
<path d="M57,44.7c2.7,0,4.4-1.6,4.4-4.6v-5.9h-1.8v5.9c0,1.9-1,2.9-2.6,2.9c-1.6,0-2.6-1-2.6-2.9v-5.9h-1.8v5.9
	C52.6,43.2,54.3,44.7,57,44.7L57,44.7z"/>
<polygon points="70.4,44.6 72.1,44.6 72.1,37.2 77.8,44.6 79.4,44.6 79.4,34.2 77.6,34.2 77.6,41.4 72,34.2 70.4,34.2 70.4,44.6 "/>
<polygon points="88.6,44.6 90.4,44.6 90.4,34.2 88.6,34.2 88.6,44.6 "/>
<polygon points="102.6,44.6 104.3,44.6 108.5,34.2 106.6,34.2 103.5,42.2 100.4,34.2 98.4,34.2 102.6,44.6 "/>
<polygon points="116.4,44.6 124.2,44.6 124.2,42.9 118.3,42.9 118.3,40.2 123.4,40.2 123.4,38.5 118.3,38.5 118.3,35.9 124.1,35.9 
	124.1,34.2 116.4,34.2 116.4,44.6 "/>
<path d="M133.1,44.6h1.8V41h2.3l2.5,3.6h2.2l-2.8-3.9c1.4-0.4,2.4-1.4,2.4-3.1v0c0-0.9-0.3-1.7-0.9-2.2c-0.7-0.6-1.7-1-3-1h-4.6
	V44.6L133.1,44.6z M134.9,39.4v-3.5h2.6c1.3,0,2.1,0.6,2.1,1.7v0c0,1-0.8,1.7-2.1,1.7H134.9L134.9,39.4z"/>
<path d="M153.9,44.7c2.2,0,3.7-1.2,3.7-3.1v0c0-1.7-1.1-2.5-3.3-3c-2-0.5-2.5-0.8-2.5-1.6v0c0-0.7,0.6-1.2,1.7-1.2
	c0.9,0,1.9,0.4,2.8,1.1l1-1.4c-1-0.8-2.2-1.3-3.7-1.3c-2,0-3.5,1.2-3.5,3v0c0,1.9,1.2,2.6,3.4,3.1c1.9,0.4,2.3,0.8,2.3,1.6v0
	c0,0.8-0.7,1.3-1.8,1.3c-1.3,0-2.3-0.5-3.3-1.3l-1.1,1.3C150.8,44.2,152.3,44.7,153.9,44.7L153.9,44.7z"/>
<polygon points="166.7,44.6 168.5,44.6 168.5,34.2 166.7,34.2 166.7,44.6 "/>
<polygon points="180.3,44.6 182.1,44.6 182.1,35.9 185.4,35.9 185.4,34.2 177,34.2 177,35.9 180.3,35.9 180.3,44.6 "/>
</svg>
