<?xml version="1.0" encoding="utf-8"?>
<!-- Generator: Adobe Illustrator 16.0.0, SVG Export Plug-In . SVG Version: 6.00 Build 0)  -->
<!DOCTYPE svg PUBLIC "-//W3C//DTD SVG 1.1//EN" "http://www.w3.org/Graphics/SVG/1.1/DTD/svg11.dtd">
<svg version="1.1" id="Layer_1" xmlns="http://www.w3.org/2000/svg" xmlns:xlink="http://www.w3.org/1999/xlink" x="0px" y="0px"
	 width="376.4px" height="79.3px" viewBox="0 0 376.4 79.3" enable-background="new 0 0 376.4 79.3" xml:space="preserve">
<polygon fill="#4D0C19" points="0,69.8 15.5,79.3 15.5,69.8 "/>
<polygon fill="#820C23" points="376.4,73.6 6.3,73.6 0,69.8 0,0 376.4,0 351.5,36.9 "/>
<polygon fill="#9E1B34" points="368.3,69.8 0,69.8 0,3.8 368.3,3.8 345.6,36.8 "/>
<g>
	<g>
		<polygon fill="#771B1B" points="104.788,28.3 112.487,28.3 109.587,48.8 113.388,48.8 116.288,28.3 123.987,28.3 124.487,24.8 
			105.288,24.8 		"/>
		<path fill="#771B1B" d="M144.688,34.9h-11.4l1.4-10.1h-3.7l-3.4,24h3.7l1.4-10.3h11.5l-1.4,10.3h3.7l0.1-0.4
			c0.5-3.9,1.1-7.699,1.6-11.5c0.5-3.8,1.1-7.6,1.6-11.5l0.1-0.6h-3.7L144.688,34.9z"/>
		<polygon fill="#771B1B" points="155.188,48.8 170.888,48.8 171.388,45.201 159.487,45.201 160.388,38.5 170.587,38.5 
			171.087,34.9 160.888,34.9 161.888,28.3 173.288,28.3 173.788,24.8 158.587,24.8 		"/>
		<path fill="#771B1B" d="M225.087,24.5c-2.199,3.9-4.299,7.7-6.5,11.5c-2.299,4-4.5,8-6.799,12l-0.4,0.701h3.9l0.1-0.301
			c0.9-1.5,1.699-3,2.6-4.6c0.801-1.4,1.6-2.9,2.4-4.3h6.6c0.4,1.4,0.801,2.8,1.2,4.201c0.399,1.5,0.8,3,1.3,4.6l0.1,0.4h3.802
			L226.487,24.4h-1.4V24.5L225.087,24.5z M222.388,36.1l0.3-0.6c0.2-0.4,0.5-0.8,0.7-1.2l0.699-1.3c0.201-0.3,0.399-0.7,0.601-1.1
			c0.2,0.7,0.399,1.5,0.601,2.2c0.199,0.7,0.399,1.3,0.601,2H222.388z"/>
		<polygon fill="#771B1B" points="238.188,28.3 245.987,28.3 243.087,48.8 246.788,48.8 249.688,28.3 257.388,28.3 257.888,24.8 
			238.688,24.8 		"/>
		<polygon fill="#771B1B" points="261.688,48.8 265.388,48.8 268.788,24.8 265.087,24.8 		"/>
		<path fill="#771B1B" d="M292.587,24.9c-1-0.3-2.101-0.4-3.199-0.4c-1.7,0-3.301,0.3-4.9,1c-1.6,0.6-3,1.5-4.199,2.6
			c-1.301,1.1-2.301,2.4-3.201,3.9c-0.799,1.5-1.398,3.1-1.6,4.8c-0.199,1.7-0.1,3.3,0.301,4.8c0.399,1.5,1.101,2.8,2.101,3.899
			c1,1.101,2.1,2,3.5,2.601c1.399,0.601,3,1,4.6,1c1.2,0,2.302-0.2,3.4-0.5s2.1-0.7,3.1-1.2l0.4-0.199l-1.7-3L290.79,44.4
			c-1.4,0.801-2.9,1.2-4.4,1.2c-1.2,0-2.2-0.2-3.2-0.7c-0.899-0.4-1.8-1.1-2.399-1.8c-0.701-0.8-1.101-1.7-1.399-2.7
			c-0.302-1-0.399-2.2-0.2-3.3c0.2-1.2,0.602-2.3,1.2-3.4c0.601-1.1,1.399-2,2.3-2.8c0.898-0.8,1.898-1.4,3-1.9
			c1.8-0.8,3.898-0.9,5.602-0.4c0.699,0.2,1.299,0.5,1.898,0.9l0.398,0.2l0.302-0.3c0.3-0.4,0.6-0.7,0.899-1.1
			c0.299-0.4,0.601-0.7,0.899-1.1l0.399-0.4l-0.5-0.3C294.487,25.7,293.587,25.2,292.587,24.9z"/>
		<path fill="#771B1B" d="M306.688,29.2c0.6-0.6,1.5-0.9,2.6-0.9c0.5,0,0.9,0.1,1.302,0.2c0.398,0.1,0.8,0.2,1.1,0.4
			c0.3,0.2,0.6,0.3,0.8,0.5c0.2,0.2,0.4,0.4,0.602,0.5l0.398,0.4l0.4-0.4c0.3-0.3,0.6-0.7,0.898-1c0.302-0.3,0.602-0.7,0.9-1
			l0.3-0.4l-0.398-0.3c-1.102-1-2.102-1.7-3.102-2.1c-0.898-0.3-1.898-0.5-2.8-0.5c-1.3,0-2.4,0.2-3.3,0.6c-0.9,0.4-1.7,0.9-2.4,1.6
			c-0.6,0.6-1.1,1.3-1.5,2.1c-0.3,0.8-0.6,1.5-0.6,2.3c-0.1,1,0,1.9,0.199,2.7c0.301,0.7,0.701,1.4,1.101,1.9c0.5,0.5,1,0.9,1.5,1.2
			s1,0.5,1.399,0.7c0.5,0.2,1.101,0.4,1.699,0.6c0.602,0.2,1.2,0.5,1.7,0.8c0.5,0.3,0.9,0.7,1.2,1.2c0.3,0.4,0.4,1,0.3,1.8
			c-0.1,0.601-0.3,1.101-0.5,1.5c-0.3,0.399-0.6,0.8-1,1.101c-0.398,0.299-0.898,0.5-1.398,0.699c-1.102,0.301-2.2,0.301-3.102,0
			c-0.5-0.199-0.899-0.4-1.3-0.6c-0.398-0.301-0.8-0.6-1.102-0.9c-0.299-0.3-0.6-0.6-0.799-0.9l-0.299-0.399l-2.699,2.3l0.199,0.4
			c0.301,0.5,0.6,1,1.1,1.4c0.5,0.5,1,0.898,1.701,1.299c0.601,0.399,1.399,0.701,2.101,0.899c0.8,0.2,1.6,0.399,2.5,0.399
			c1,0,1.898-0.199,2.898-0.5c0.9-0.299,1.801-0.799,2.5-1.398c0.7-0.6,1.4-1.3,1.9-2.199c0.5-0.801,0.8-1.801,1-2.9
			c0.2-1.199,0-2.299-0.4-3.199c-0.398-0.9-0.898-1.6-1.6-2.2s-1.4-1.1-2.2-1.5s-1.5-0.7-2.2-1c-0.5-0.2-0.898-0.3-1.3-0.5
			c-0.4-0.1-0.699-0.3-0.9-0.5c-0.198-0.2-0.398-0.4-0.5-0.7c-0.1-0.3-0.1-0.7-0.1-1.1C305.688,30.5,306.087,29.8,306.688,29.2z"/>
		<path fill="#771B1B" d="M73.788,24.5c-2.2,2.4-4.4,4.8-6.6,7.2c-2.2,2.4-4.4,4.9-6.7,7.3c-1.5-2.4-3-4.8-4.6-7.3l-4.6-7.3h-1.3
			l-3.4,24.301h3.7l2.2-15.301c1.1,1.8,2.2,3.5,3.3,5.2c1.2,1.899,2.4,3.8,3.6,5.7l0.4,0.6l0.4-0.5c1.9-2.1,3.8-4.1,5.6-6.1
			c1.5-1.5,2.9-3.1,4.2-4.8l-2.1,15.201h3.7l3.6-24.201H73.788z"/>
		<path fill="#771B1B" d="M92.288,24.5c-2.2,3.9-4.3,7.7-6.5,11.5c-2.3,4-4.5,8-6.8,12l-0.4,0.701h3.9l0.1-0.301
			c0.9-1.5,1.7-3,2.6-4.6c0.8-1.4,1.6-2.9,2.4-4.3h6.6c0.4,1.4,0.8,2.8,1.2,4.201c0.4,1.5,0.8,3,1.3,4.6l0.1,0.4h3.8l-6.9-24.301
			h-1.4V24.5z M89.587,36.1l0.3-0.6c0.2-0.4,0.5-0.8,0.7-1.2l0.7-1.3c0.2-0.3,0.4-0.7,0.6-1.1c0.2,0.7,0.4,1.5,0.6,2.2
			c0.2,0.7,0.4,1.3,0.6,2H89.587z"/>
		<path fill="#771B1B" d="M206.587,24.5c-2.199,2.4-4.399,4.8-6.601,7.2c-2.198,2.4-4.399,4.9-6.698,7.3c-1.5-2.4-3-4.8-4.602-7.3
			l-4.6-7.3h-1.3l-3.4,24.301h3.7l2.2-15.301c1.1,1.8,2.2,3.5,3.3,5.2c1.199,1.899,2.399,3.8,3.6,5.7l0.398,0.6l0.4-0.5
			c1.9-2.1,3.801-4.1,5.6-6.1c1.5-1.5,2.9-3.1,4.201-4.8l-2.099,15.201h3.7l3.4-24.301h-1.201V24.5L206.587,24.5z"/>
	</g>
</g>
<g>
	<g>
		<polygon fill="#FFFFFF" points="103.6,28.3 111.3,28.3 108.4,48.8 112.2,48.8 115.1,28.3 122.8,28.3 123.3,24.8 104.1,24.8 		"/>
		<path fill="#FFFFFF" d="M143.5,34.9h-11.4l1.4-10.1h-3.7l-3.4,24h3.7l1.4-10.3H143l-1.4,10.3h3.7l0.1-0.4
			c0.5-3.9,1.1-7.699,1.6-11.5c0.5-3.8,1.1-7.6,1.6-11.5l0.1-0.6H145L143.5,34.9z"/>
		<polygon fill="#FFFFFF" points="154,48.8 169.7,48.8 170.2,45.201 158.3,45.201 159.2,38.5 169.4,38.5 169.9,34.9 159.7,34.9 
			160.7,28.3 172.1,28.3 172.6,24.8 157.4,24.8 		"/>
		<path fill="#FFFFFF" d="M223.899,24.5c-2.199,3.9-4.299,7.7-6.5,11.5c-2.299,4-4.5,8-6.799,12l-0.4,0.701h3.9l0.1-0.301
			c0.9-1.5,1.699-3,2.6-4.6c0.801-1.4,1.6-2.9,2.4-4.3h6.6c0.4,1.4,0.801,2.8,1.2,4.201c0.399,1.5,0.8,3,1.3,4.6l0.1,0.4h3.802
			L225.3,24.4h-1.4V24.5L223.899,24.5z M221.2,36.1l0.3-0.6c0.2-0.4,0.5-0.8,0.7-1.2l0.699-1.3c0.201-0.3,0.399-0.7,0.601-1.1
			c0.2,0.7,0.399,1.5,0.601,2.2c0.199,0.7,0.399,1.3,0.601,2H221.2z"/>
		<polygon fill="#FFFFFF" points="237,28.3 244.8,28.3 241.899,48.8 245.601,48.8 248.5,28.3 256.2,28.3 256.7,24.8 237.5,24.8 		
			"/>
		<polygon fill="#FFFFFF" points="260.5,48.8 264.2,48.8 267.601,24.8 263.899,24.8 		"/>
		<path fill="#FFFFFF" d="M291.399,24.9c-1-0.3-2.101-0.4-3.199-0.4c-1.7,0-3.301,0.3-4.9,1c-1.6,0.6-3,1.5-4.199,2.6
			c-1.301,1.1-2.301,2.4-3.201,3.9c-0.799,1.5-1.398,3.1-1.6,4.8c-0.199,1.7-0.1,3.3,0.301,4.8c0.399,1.5,1.101,2.8,2.101,3.899
			c1,1.101,2.1,2,3.5,2.601c1.399,0.601,3,1,4.6,1c1.2,0,2.302-0.2,3.4-0.5s2.1-0.7,3.1-1.2l0.4-0.199l-1.7-3l-0.398,0.199
			c-1.4,0.801-2.9,1.2-4.4,1.2c-1.2,0-2.2-0.2-3.2-0.7c-0.899-0.4-1.8-1.1-2.399-1.8c-0.701-0.8-1.101-1.7-1.399-2.7
			c-0.302-1-0.399-2.2-0.2-3.3c0.2-1.2,0.602-2.3,1.2-3.4c0.601-1.1,1.399-2,2.3-2.8c0.898-0.8,1.898-1.4,3-1.9
			c1.8-0.8,3.898-0.9,5.602-0.4c0.699,0.2,1.299,0.5,1.898,0.9l0.398,0.2l0.302-0.3c0.3-0.4,0.6-0.7,0.899-1.1
			c0.299-0.4,0.601-0.7,0.899-1.1l0.399-0.4l-0.5-0.3C293.3,25.7,292.399,25.2,291.399,24.9z"/>
		<path fill="#FFFFFF" d="M305.5,29.2c0.6-0.6,1.5-0.9,2.6-0.9c0.5,0,0.9,0.1,1.302,0.2c0.398,0.1,0.8,0.2,1.1,0.4
			c0.3,0.2,0.6,0.3,0.8,0.5c0.2,0.2,0.4,0.4,0.602,0.5l0.398,0.4l0.4-0.4c0.3-0.3,0.6-0.7,0.898-1c0.302-0.3,0.602-0.7,0.9-1
			l0.3-0.4l-0.398-0.3c-1.102-1-2.102-1.7-3.102-2.1c-0.898-0.3-1.898-0.5-2.8-0.5c-1.3,0-2.4,0.2-3.3,0.6c-0.9,0.4-1.7,0.9-2.4,1.6
			c-0.6,0.6-1.1,1.3-1.5,2.1c-0.3,0.8-0.6,1.5-0.6,2.3c-0.1,1,0,1.9,0.199,2.7c0.301,0.7,0.701,1.4,1.101,1.9c0.5,0.5,1,0.9,1.5,1.2
			s1,0.5,1.399,0.7c0.5,0.2,1.101,0.4,1.699,0.6c0.602,0.2,1.2,0.5,1.7,0.8c0.5,0.3,0.9,0.7,1.2,1.2c0.3,0.4,0.4,1,0.3,1.8
			c-0.1,0.601-0.3,1.101-0.5,1.5c-0.3,0.399-0.6,0.8-1,1.101C307.9,45,307.4,45.201,306.9,45.4c-1.102,0.301-2.2,0.301-3.102,0
			c-0.5-0.199-0.899-0.4-1.3-0.6c-0.398-0.301-0.8-0.6-1.102-0.9c-0.299-0.3-0.6-0.6-0.799-0.9L300.3,42.6l-2.699,2.3l0.199,0.4
			c0.301,0.5,0.6,1,1.1,1.4c0.5,0.5,1,0.898,1.701,1.299c0.601,0.399,1.399,0.701,2.101,0.899c0.8,0.2,1.6,0.399,2.5,0.399
			c1,0,1.898-0.199,2.898-0.5C309,48.5,309.9,48,310.6,47.4c0.7-0.6,1.4-1.3,1.9-2.199c0.5-0.801,0.8-1.801,1-2.9
			c0.2-1.199,0-2.299-0.4-3.199c-0.398-0.9-0.898-1.6-1.6-2.2s-1.4-1.1-2.2-1.5s-1.5-0.7-2.2-1c-0.5-0.2-0.898-0.3-1.3-0.5
			c-0.4-0.1-0.699-0.3-0.9-0.5c-0.198-0.2-0.398-0.4-0.5-0.7c-0.1-0.3-0.1-0.7-0.1-1.1C304.5,30.5,304.899,29.8,305.5,29.2z"/>
		<path fill="#FFFFFF" d="M72.6,24.5c-2.2,2.4-4.4,4.8-6.6,7.2c-2.2,2.4-4.4,4.9-6.7,7.3c-1.5-2.4-3-4.8-4.6-7.3l-4.6-7.3h-1.3
			l-3.4,24.301h3.7L51.3,33.4c1.1,1.8,2.2,3.5,3.3,5.2c1.2,1.899,2.4,3.8,3.6,5.7l0.4,0.6l0.4-0.5c1.9-2.1,3.8-4.1,5.6-6.1
			c1.5-1.5,2.9-3.1,4.2-4.8l-2.1,15.201h3.7L74,24.5H72.6z"/>
		<path fill="#FFFFFF" d="M91.1,24.5c-2.2,3.9-4.3,7.7-6.5,11.5c-2.3,4-4.5,8-6.8,12l-0.4,0.701h3.9l0.1-0.301
			c0.9-1.5,1.7-3,2.6-4.6c0.8-1.4,1.6-2.9,2.4-4.3H93c0.4,1.4,0.8,2.8,1.2,4.201c0.4,1.5,0.8,3,1.3,4.6l0.1,0.4h3.8L92.5,24.4h-1.4
			V24.5z M88.4,36.1l0.3-0.6c0.2-0.4,0.5-0.8,0.7-1.2l0.7-1.3c0.2-0.3,0.4-0.7,0.6-1.1c0.2,0.7,0.4,1.5,0.6,2.2
			c0.2,0.7,0.4,1.3,0.6,2H88.4z"/>
		<path fill="#FFFFFF" d="M205.399,24.5c-2.199,2.4-4.399,4.8-6.601,7.2c-2.198,2.4-4.399,4.9-6.698,7.3c-1.5-2.4-3-4.8-4.602-7.3
			l-4.6-7.3h-1.3l-3.4,24.301h3.7l2.2-15.301c1.1,1.8,2.2,3.5,3.3,5.2c1.2,1.899,2.4,3.8,3.6,5.7l0.398,0.6l0.4-0.5
			c1.9-2.1,3.801-4.1,5.6-6.1c1.5-1.5,2.9-3.1,4.201-4.8L199.5,48.701h3.7l3.4-24.301h-1.201V24.5L205.399,24.5z"/>
	</g>
</g>
</svg>
