<?xml version="1.0" encoding="utf-8"?>
<!-- Generator: Adobe Illustrator 19.1.0, SVG Export Plug-In . SVG Version: 6.00 Build 0)  -->
<svg version="1.1" id="Layer_1" xmlns="http://www.w3.org/2000/svg" xmlns:xlink="http://www.w3.org/1999/xlink" x="0px" y="0px"
	 viewBox="0 0 40 44" style="enable-background:new 0 0 40 44;" xml:space="preserve">
<style type="text/css">
	.st0{fill:#A91E44;}
	.st1{fill:#FFFFFF;}
</style>
<g>
	<rect x="0" y="0" class="st0" width="40" height="44"/>
	<g>
		<polygon class="st1" points="30.3,7.6 9.8,7.6 7.7,7.6 7.7,9.6 7.7,17.7 9.8,17.7 9.8,9.6 30.3,9.6 30.3,17.5 32.3,17.5 32.3,9.6 
			32.3,7.6 30.3,7.6 		"/>
		<polygon class="st1" points="13.2,30 13.2,32 16.7,32 18.8,32 18.8,30 18.8,14.2 18.8,12.1 16.7,12.1 14.3,12.1 12.2,12.1 
			12.2,14.2 12.2,17.6 14.3,17.6 14.3,14.2 16.7,14.2 16.7,30 13.2,30 		"/>
		<polygon class="st1" points="23.4,12.1 21.3,12.1 21.3,14.2 21.3,29.9 21.3,32 23.4,32 26.9,32 26.9,29.9 23.4,29.9 23.4,14.2 
			25.8,14.2 25.8,17.6 27.9,17.6 27.9,14.2 27.9,12.1 25.8,12.1 23.4,12.1 		"/>
		<polygon class="st1" points="13.2,36.4 26.9,36.4 26.9,34.4 13.2,34.4 13.2,36.4 		"/>
	</g>
</g>
</svg>
