<?xml version="1.0" encoding="utf-8"?>
<!-- Generator: Adobe Illustrator 19.1.0, SVG Export Plug-In . SVG Version: 6.00 Build 0)  -->
<svg version="1.1" id="Layer_1" xmlns="http://www.w3.org/2000/svg" xmlns:xlink="http://www.w3.org/1999/xlink" x="0px" y="0px"
	 viewBox="0 0 138.8 31.9" style="enable-background:new 0 0 138.8 31.9;" xml:space="preserve">
<style type="text/css">
	.st0{fill:#FFFFFF;}
</style>
<polygon class="st0" points="131.1,30.5 132.3,30.5 132.3,27.8 135,23.7 133.6,23.7 131.7,26.7 129.8,23.7 128.3,23.7 131.1,27.8 
	131.1,30.5 "/>
<g>
	<polygon class="st0" points="24,1.6 3.6,1.6 1.4,1.6 1.4,3.6 1.4,11.6 3.6,11.6 3.6,3.6 24,3.6 24,11.5 26.1,11.5 26.1,3.6 
		26.1,1.6 24,1.6 	"/>
	<polygon class="st0" points="6.9,23.9 6.9,26 10.5,26 12.6,26 12.6,23.9 12.6,8.2 12.6,6.1 10.5,6.1 8.1,6.1 6,6.1 6,8.2 6,11.6 
		8.1,11.6 8.1,8.2 10.5,8.2 10.5,23.9 6.9,23.9 	"/>
	<polygon class="st0" points="17.1,6.1 15.1,6.1 15.1,8.1 15.1,23.9 15.1,26 17.1,26 20.7,26 20.7,23.9 17.1,23.9 17.1,8.1 
		19.6,8.1 19.6,11.6 21.7,11.6 21.7,8.1 21.7,6.1 19.6,6.1 17.1,6.1 	"/>
	<polygon class="st0" points="6.9,30.3 20.7,30.3 20.7,28.3 6.9,28.3 6.9,30.3 	"/>
</g>
<path class="st0" d="M48.3,6.2C48.1,4.5,48,2.2,48,1h-0.6c-0.5,0.5-0.8,0.7-1.5,0.7H34.6c-0.8,0-1.1-0.1-1.6-0.7h-0.6
	c-0.1,1.4-0.2,3.4-0.3,5.3h0.9c0.3-1.3,0.6-2.2,1.1-2.7c0.4-0.5,0.9-0.8,3.2-0.8h1.2v13.4c0,2.3-0.3,2.5-2.7,2.7v0.9h8.7v-0.9
	c-2.5-0.2-2.8-0.4-2.8-2.7V2.8h1.5c1.8,0,2.4,0.2,2.9,0.8C46.7,4,47,4.9,47.3,6.3L48.3,6.2L48.3,6.2z M63.7,15.1
	c-0.5,1.2-1,2.1-1.5,2.7c-0.6,0.7-1.5,0.9-3.2,0.9c-1.2,0-2.1,0-2.7-0.3c-0.5-0.3-0.7-0.9-0.7-2.3v-5h2.2c2.4,0,2.7,0.1,3.1,2.1h0.9
	V7.7h-0.9c-0.4,2-0.6,2.1-3.1,2.1h-2.1V3.8c0-0.9,0.1-0.9,1.1-0.9h1.6c1.7,0,2.5,0.2,2.9,0.8c0.4,0.5,0.8,1.3,1,2.4l0.9-0.1
	c-0.1-1.6-0.3-3.6-0.3-4.1H50.1v0.9c2.1,0.2,2.3,0.3,2.3,2.8v10.8c0,2.3-0.3,2.5-2.7,2.7v0.9h13.9c0.3-0.8,0.8-3.4,1-4.5L63.7,15.1
	L63.7,15.1z M89,19.8v-0.9c-2.3-0.2-2.4-0.4-2.5-3.1L86.3,5.5c-0.1-2.5,0.1-2.7,2.4-2.9V1.7h-5.3l-5.8,12.8L71.8,1.7h-5.3v0.9
	c2.4,0.2,2.6,0.5,2.4,3.9l-0.4,5.6c-0.2,2.9-0.4,4.3-0.6,5.2c-0.2,1-0.7,1.5-2.3,1.6v0.9h6.6v-0.9c-1.9-0.2-2.5-0.4-2.5-1.7
	c-0.1-1-0.1-2.2,0-4.5l0.4-7.5h0.1l5.9,14.5h0.7l6.4-14.8h0.1l0.1,11c0,2.7-0.1,2.9-2.3,3.1v0.9H89L89,19.8z M91,1.7v0.9
	c2,0.2,2.2,0.3,2.2,2.7v10.9c0,2.3-0.3,2.5-2.4,2.7v0.9h8.3v-0.9c-2.4-0.2-2.7-0.4-2.7-2.7v-4l2,0.5c0.3,0,0.8,0,1.2-0.1
	c2.9-0.3,5.6-2.1,5.6-5.7c0-1.8-0.8-3.2-2-4.1c-1.1-0.8-2.7-1.1-4.8-1.1H91L91,1.7z M96.4,4c0-0.6,0.1-0.9,0.3-1
	c0.2-0.2,0.6-0.3,1.2-0.3c1.9,0,3.7,1.1,3.7,4.2c0,3.7-2.2,4.5-3.5,4.5c-0.7,0-1.4-0.1-1.7-0.3V4L96.4,4z M119.5,15
	c-0.5,1.4-1,2.3-1.5,2.8c-0.6,0.8-1.6,0.9-3,0.9c-1,0-1.8-0.1-2.3-0.3c-0.6-0.3-0.7-0.8-0.7-2.1v-11c0-2.4,0.3-2.5,2.4-2.7V1.7h-8.1
	v0.9c2.2,0.2,2.4,0.4,2.4,2.7v10.9c0,2.4-0.3,2.5-2.6,2.7v0.9h13.2c0.3-0.8,0.8-3.5,1-4.6L119.5,15L119.5,15z M135.2,15.1
	c-0.5,1.2-1,2.1-1.5,2.7c-0.6,0.7-1.5,0.9-3.2,0.9c-1.2,0-2.1,0-2.7-0.3c-0.5-0.3-0.7-0.9-0.7-2.3v-5h2.2c2.4,0,2.7,0.1,3.1,2.1h0.9
	V7.7h-0.9c-0.4,2-0.6,2.1-3.1,2.1h-2.1V3.8c0-0.9,0.1-0.9,1.1-0.9h1.6c1.7,0,2.5,0.2,2.9,0.8c0.4,0.5,0.8,1.3,1,2.4l0.9-0.1
	c-0.1-1.6-0.3-3.6-0.3-4.1h-12.9v0.9c2.1,0.2,2.3,0.3,2.3,2.8v10.8c0,2.3-0.3,2.5-2.7,2.7v0.9h13.9c0.3-0.8,0.8-3.4,1-4.5
	L135.2,15.1L135.2,15.1z"/>
<path class="st0" d="M39.2,30.5c1.8,0,2.9-1,2.9-3.1v-3.9h-1.2v3.9c0,1.3-0.7,1.9-1.7,1.9c-1.1,0-1.7-0.7-1.7-1.9v-3.9h-1.2v3.9
	C36.3,29.5,37.4,30.5,39.2,30.5L39.2,30.5z"/>
<polygon class="st0" points="48,30.4 49.2,30.4 49.2,25.6 53,30.4 54,30.4 54,23.6 52.8,23.6 52.8,28.3 49.2,23.6 48,23.6 48,30.4 
	"/>
<polygon class="st0" points="60.1,30.4 61.3,30.4 61.3,23.6 60.1,23.6 60.1,30.4 "/>
<polygon class="st0" points="69.4,30.5 70.4,30.5 73.2,23.6 72,23.6 69.9,28.9 67.9,23.6 66.5,23.6 69.4,30.5 "/>
<polygon class="st0" points="78.5,30.4 83.6,30.4 83.6,29.4 79.7,29.4 79.7,27.5 83.1,27.5 83.1,26.5 79.7,26.5 79.7,24.7 
	83.5,24.7 83.5,23.6 78.5,23.6 78.5,30.4 "/>
<path class="st0" d="M89.5,30.4h1.2v-2.4h1.5l1.7,2.4h1.4l-1.8-2.6c0.9-0.3,1.6-0.9,1.6-2.1v0c0-0.6-0.2-1.1-0.6-1.5
	c-0.4-0.4-1.1-0.7-2-0.7h-3V30.4L89.5,30.4z M90.7,27v-2.3h1.7c0.9,0,1.4,0.4,1.4,1.1v0c0,0.7-0.5,1.1-1.4,1.1H90.7L90.7,27z"/>
<path class="st0" d="M103.2,30.5c1.4,0,2.4-0.8,2.4-2v0c0-1.1-0.7-1.6-2.2-2c-1.3-0.3-1.6-0.5-1.6-1.1v0c0-0.4,0.4-0.8,1.1-0.8
	c0.6,0,1.2,0.2,1.9,0.7l0.6-0.9c-0.7-0.6-1.5-0.9-2.5-0.9c-1.4,0-2.3,0.8-2.3,2v0c0,1.3,0.8,1.7,2.3,2c1.3,0.3,1.5,0.6,1.5,1v0
	c0,0.5-0.5,0.9-1.2,0.9c-0.8,0-1.5-0.3-2.2-0.9l-0.7,0.9C101.2,30.2,102.2,30.5,103.2,30.5L103.2,30.5z"/>
<polygon class="st0" points="111.6,30.4 112.8,30.4 112.8,23.6 111.6,23.6 111.6,30.4 "/>
<polygon class="st0" points="120.6,30.4 121.8,30.4 121.8,24.7 124,24.7 124,23.6 118.5,23.6 118.5,24.7 120.6,24.7 120.6,30.4 "/>
<g>
	<path class="st0" d="M137.4,24.5c0,0.5-0.4,0.9-0.9,0.9c-0.5,0-0.9-0.4-0.9-0.9c0-0.5,0.4-0.9,0.9-0.9
		C137.1,23.6,137.4,24,137.4,24.5z M135.9,24.5c0,0.4,0.3,0.7,0.7,0.7c0.4,0,0.7-0.3,0.7-0.7c0-0.4-0.3-0.7-0.7-0.7
		C136.2,23.8,135.9,24.1,135.9,24.5z M136.4,24.9h-0.2v-0.9c0.1,0,0.2,0,0.3,0c0.2,0,0.2,0,0.3,0.1c0,0,0.1,0.1,0.1,0.2
		c0,0.1-0.1,0.2-0.2,0.2v0c0.1,0,0.1,0.1,0.2,0.2c0,0.1,0,0.2,0.1,0.2h-0.2c0,0,0-0.1-0.1-0.2c0-0.1-0.1-0.1-0.2-0.1h-0.1V24.9z
		 M136.4,24.4L136.4,24.4c0.2,0,0.3,0,0.3-0.1c0-0.1-0.1-0.1-0.2-0.1c-0.1,0-0.1,0-0.1,0V24.4z"/>
</g>
</svg>
